<svg width="575" height="700" viewBox="0 0 575 700" fill="none" xmlns="http://www.w3.org/2000/svg">
<path d="M277.468 633.881C179.006 673.301 148.097 796.696 144.95 853.465C114.224 921.193 66.9047 1015.09 123.44 848.85C194.108 641.051 186.071 661.828 384.236 586.731C542.768 526.654 661.351 415.39 700.825 367.267L694.321 397.577C639.429 508.019 400.545 584.605 277.468 633.881Z" fill="#11120D" stroke="#11120D"/>
<path d="M500.588 485.726C614.713 438.626 652.823 291.149 657.613 223.299C694.368 142.355 750.757 30.1385 682.273 228.818C596.669 477.168 606.347 452.338 376.744 542.063C193.062 613.843 54.3035 746.809 7.88433 804.319L15.9928 768.093C81.4375 636.102 357.932 544.601 500.588 485.726Z" fill="#D8D0BC" stroke="#D8D0BC"/>
<path d="M343.532 578.722C237.338 682.585 274.448 822.103 306.277 878.878C308.307 964.665 304.832 1086.76 274.684 888.831C236.999 641.421 239.471 666.808 455.891 461.856C629.028 297.894 716.447 111.377 738.514 38.6145L749.08 72.1561C746.012 215.251 476.276 448.893 343.532 578.722Z" fill="#565448" stroke="#565448"/>
<path d="M300.902 604.643C212.902 663.843 208.568 790.976 217.402 847.143C201.568 919.81 175.002 1021.54 195.402 847.143C220.902 629.143 217.402 651.143 395.402 536.143C537.802 444.143 630.402 310.476 658.902 255.143V286.143C628.402 405.643 410.902 530.643 300.902 604.643Z" fill="#FFFAF4" stroke="#FFFAF4"/>
</svg>
